<svg xmlns="http://www.w3.org/2000/svg" xmlns:xlink="http://www.w3.org/1999/xlink" viewBox="0 0 113.99 14.16">
  <defs/>
  <defs>
    <linearGradient id="a">
      <stop offset="0" stop-color="#fdfeff"/>
      <stop offset="1" stop-color="#fdfeff" stop-opacity="0"/>
    </linearGradient>
    <linearGradient id="b" x1="-507.27" x2="-509.01" y1="-299.55" y2="-283.78" gradientUnits="userSpaceOnUse" xlink:href="#a"/>
  </defs>
  <path fill="url(#b)" d="M-507.27-299.55a14.84 5.74 0 00-14.7 4.98 18.53 4.9 0 00-9-.62 18.53 4.9 0 00-18.54 4.9 18.53 4.9 0 0018.54 4.9 18.53 4.9 0 0015-2.03 11.9 2.36 0 0010.83 1.4 11.9 2.36 0 0011.33-1.65 19.19 4.12 0 0015.32 1.64 19.19 4.12 0 0019.2-4.12 19.19 4.12 0 00-.71-1.1 18.62 2.6 0 005.87.13 18.62 2.6 0 0018.61-2.6 18.62 2.6 0 00-18.61-2.59 18.62 2.6 0 00-5.56.13 8.2 2.04 0 00-7.15-1.05 8.2 2.04 0 00-5.88.62 13.12 2.96 0 00-11.5-1.55 13.12 2.96 0 00-10.61 1.23 14.84 5.74 0 00-12.44-2.62z" transform="translate(549.5 299.55)"/>
</svg>
