<svg xmlns="http://www.w3.org/2000/svg" xmlns:xlink="http://www.w3.org/1999/xlink" viewBox="0 0 177.2 19.51">
  <defs/>
  <defs>
    <linearGradient id="a">
      <stop offset="0" stop-color="#fdfeff"/>
      <stop offset="1" stop-color="#fdfeff" stop-opacity="0"/>
    </linearGradient>
    <linearGradient id="b" x1="-509.95" x2="-508.61" y1="-333.22" y2="-309.03" gradientUnits="userSpaceOnUse" xlink:href="#a"/>
  </defs>
  <path fill="url(#b)" d="M-479.06-334.02a40.63 8.8 0 00-37.57 5.46 27.78 7.8 0 00-16.63-1.56 27.78 7.8 0 00-25.06 4.46 12.36 2.72 0 00-3.28-.1 12.36 2.72 0 00-12.36 2.72 12.36 2.72 0 0012.36 2.72 12.36 2.72 0 001.48-.02 27.78 7.8 0 0026.86 5.83 27.78 7.8 0 0019.15-2.16 12.6 3.27 0 0011.7 2.07 12.6 3.27 0 0011.87-2.18 40.63 8.8 0 0011.48.36 40.63 8.8 0 0033.5-3.82 25.12 3.68 0 0023.68 2.46 25.12 3.68 0 0025.12-3.67 25.12 3.68 0 00-25.08-3.68 15.02 4.04 0 00.53-1.04 15.02 4.04 0 00-15.03-4.04 15.02 4.04 0 00-7.65.57 40.63 8.8 0 00-35.07-4.38z" transform="translate(573.96 334.02)"/>
</svg>
