<svg xmlns="http://www.w3.org/2000/svg" xmlns:xlink="http://www.w3.org/1999/xlink" viewBox="0 0 112.17 13.76">
  <defs/>
  <defs>
    <linearGradient id="a">
      <stop offset="0" stop-color="#fdfeff"/>
      <stop offset="1" stop-color="#fdfeff" stop-opacity="0"/>
    </linearGradient>
    <linearGradient id="b" x1="-512.52" x2="-514.07" y1="-361.49" y2="-342.51" gradientUnits="userSpaceOnUse" xlink:href="#a"/>
  </defs>
  <path fill="url(#b)" d="M-498.36-358.75a4.17 15.67 87 00-13.3 1.67 6.29 24.25 87.18 00-10.23-.68 6.29 24.25 87.18 00-28.07 6.39 6.29 24.25 87.18 0019.63 6.39 6.29 24.25 87.18 0019.35-2.18 3.42 23.61 89.18 0018.93 1.64 3.42 23.61 89.18 0022.72-2.02 3.98 18.36 88.1 0010.15.77 3.98 18.36 88.1 0020.82-4.02 3.98 18.36 88.1 00-15.5-4.02 3.98 18.36 88.1 00-.06 0 2.16 8.68 87.43 00-7.2-1.7 2.16 8.68 87.43 00-7.98 1.05 3.76 12.92 86.33 00-8.05-1.22 2.03 8.22 87.48 00-5.42-.64 2.03 8.22 87.48 00-4.52.32 4.17 15.67 87 00-11.27-1.75z" transform="translate(550.33 358.75)"/>
</svg>
