<svg xmlns="http://www.w3.org/2000/svg" xmlns:xlink="http://www.w3.org/1999/xlink" viewBox="0 0 89 11.36">
  <defs/>
  <defs>
    <linearGradient id="a">
      <stop offset="0" stop-color="#fdfeff"/>
      <stop offset="1" stop-color="#fdfeff" stop-opacity="0"/>
    </linearGradient>
    <linearGradient id="b" x1="-1910.2" x2="-1908.18" y1="-1033.4" y2="-982.89" gradientUnits="userSpaceOnUse" xlink:href="#a"/>
  </defs>
  <path fill="url(#b)" d="M-1890.87-1025.57a71.38 19.45 0 00-63.26 10.48 36.7 10.5 0 00-12.46-.64 36.7 10.5 0 00-29.29 4.2 32.66 9.61 0 00-21.57-2.41 32.66 9.61 0 00-32.66 9.61 32.66 9.61 0 0032.66 9.62 32.66 9.61 0 0024.39-3.24 36.7 10.5 0 0026.47 3.24 36.7 10.5 0 0015.45-1 71.38 19.45 0 0060.27 9.05 71.38 19.45 0 0045.97-4.6 31.79 8.5 0 00-.02.13 31.79 8.5 0 0031.79 8.5 31.79 8.5 0 0030.78-6.43 53.46 15.2 0 0035.6-6.03 19.65 11.4 0 0013.38 3.06 19.65 11.4 0 0019.65-11.4 19.65 11.4 0 00-19.65-11.4 19.65 11.4 0 00-11.86 2.32 53.46 15.2 0 00-44.5-6.8 53.46 15.2 0 00-37.51 4.38 71.38 19.45 0 00-63.63-10.64z" transform="matrix(.26458 0 0 .26458 542.42 271.35)"/>
</svg>
