<svg xmlns="http://www.w3.org/2000/svg" xmlns:xlink="http://www.w3.org/1999/xlink" viewBox="0 0 210 297">
  <defs/>
  <defs>
    <linearGradient id="a">
      <stop offset="0" stop-color="#fdfeff"/>
      <stop offset="1" stop-color="#fdfeff" stop-opacity="0"/>
    </linearGradient>
    <linearGradient id="b" x1="-517.57" x2="-460.91" y1="-224.24" y2="-220.37" gradientUnits="userSpaceOnUse" xlink:href="#a"/>
  </defs>
  <path fill="url(#b)" d="M-489.42-224.3a6.17 1.22 0 00-5.76.77 15.58 3.8 0 00-7.77-.5 15.58 3.8 0 00-3.53.1 10 2.12 0 00-4.85-.27 10 2.12 0 00-10 2.12 10 2.12 0 00.03.14 11.9 2.34 0 00-7.23 2.14 11.9 2.34 0 0011.91 2.34 11.9 2.34 0 002.74-.06 15.58 3.8 0 0010.93 1.1 15.58 3.8 0 0011.67-1.3 18.15 2.42 0 0012.22.64 18.15 2.42 0 0018.15-2.42 18.15 2.42 0 00-7.07-1.91 12.86 1.82 0 00-12.7-1.54 12.86 1.82 0 00-2.64.04 6.17 1.22 0 00.07-.18 6.17 1.22 0 00-6.17-1.22z"/>
</svg>
