<?xml version="1.0" encoding="UTF-8" standalone="no"?>
<!-- Created with Inkscape (http://www.inkscape.org/) -->

<svg
   xmlns:osb="http://www.openswatchbook.org/uri/2009/osb"
   xmlns:dc="http://purl.org/dc/elements/1.1/"
   xmlns:cc="http://creativecommons.org/ns#"
   xmlns:rdf="http://www.w3.org/1999/02/22-rdf-syntax-ns#"
   xmlns:svg="http://www.w3.org/2000/svg"
   xmlns="http://www.w3.org/2000/svg"
   xmlns:xlink="http://www.w3.org/1999/xlink"
   xmlns:sodipodi="http://sodipodi.sourceforge.net/DTD/sodipodi-0.dtd"
   xmlns:inkscape="http://www.inkscape.org/namespaces/inkscape"
   width="108.28487mm"
   height="9.3956842mm"
   viewBox="0 0 108.28488 9.3956842"
   version="1.1"
   id="svg8"
   inkscape:version="0.92.4 (5da689c313, 2019-01-14)"
   sodipodi:docname="cloud1.svg">
  <defs
     id="defs2">
    <linearGradient
       id="linearGradient865"
       osb:paint="solid">
      <stop
         style="stop-color:#ffca00;stop-opacity:1;"
         offset="0"
         id="stop863" />
    </linearGradient>
    <linearGradient
       inkscape:collect="always"
       id="linearGradient955">
      <stop
         style="stop-color:#fdfeff;stop-opacity:1;"
         offset="0"
         id="stop951" />
      <stop
         style="stop-color:#fdfeff;stop-opacity:0;"
         offset="1"
         id="stop953" />
    </linearGradient>
    <linearGradient
       inkscape:collect="always"
       xlink:href="#linearGradient955"
       id="linearGradient959"
       x1="-499.90781"
       y1="-385.10483"
       x2="-502.27255"
       y2="-363.32236"
       gradientUnits="userSpaceOnUse" />
  </defs>
  <sodipodi:namedview
     id="base"
     pagecolor="#ffffff"
     bordercolor="#666666"
     borderopacity="1.0"
     inkscape:pageopacity="0.0"
     inkscape:pageshadow="2"
     inkscape:zoom="2.8"
     inkscape:cx="324.35309"
     inkscape:cy="14.925587"
     inkscape:document-units="mm"
     inkscape:current-layer="layer1"
     showgrid="false"
     inkscape:pagecheckerboard="true"
     inkscape:window-width="3840"
     inkscape:window-height="2081"
     inkscape:window-x="1491"
     inkscape:window-y="-9"
     inkscape:window-maximized="1"
     fit-margin-top="0"
     fit-margin-left="0"
     fit-margin-right="0"
     fit-margin-bottom="0" />
  <metadata
     id="metadata5">
    <rdf:RDF>
      <cc:Work
         rdf:about="">
        <dc:format>image/svg+xml</dc:format>
        <dc:type
           rdf:resource="http://purl.org/dc/dcmitype/StillImage" />
        <dc:title></dc:title>
      </cc:Work>
    </rdf:RDF>
  </metadata>
  <g
     inkscape:label="Layer 1"
     inkscape:groupmode="layer"
     id="layer1"
     transform="translate(543.60639,382.45276)">
    <path
       style="fill:url(#linearGradient959);fill-opacity:1;stroke:none;stroke-width:0.21233273"
       d="m -471.56253,-382.44509 a 2.8300748,13.589898 88.129695 0 0 -14.51951,1.7186 2.5748568,17.37913 89.576605 0 0 -13.82651,-1.64595 2.5748568,17.37913 89.576605 0 0 -18.02795,1.46715 2.9325924,19.589874 89.547106 0 0 -3.00711,-0.0895 2.9325924,19.589874 89.547106 0 0 -22.42016,2.6095 2.9325924,19.589874 89.547106 0 0 16.27329,3.23075 2.9325924,19.589874 89.547106 0 0 7.0031,-0.0783 28.808311,3.4374245 0.06320794 0 0 23.07916,2.14506 28.808311,3.4374245 0.06320794 0 0 23.05367,-0.85241 12.47855,1.5378356 0.00415461 0 0 9.28221,0.77797 12.47855,1.5378356 0.00415461 0 0 13.73672,-1.16565 3.2591948,21.967307 89.572651 0 0 15.34676,-2.72259 3.2591948,21.967307 89.572651 0 0 -18.28456,-3.59323 3.2591948,21.967307 89.572651 0 0 -7.40248,0.0724 2.8300748,13.589898 88.129695 0 0 -10.28661,-1.87382 z"
       id="path897"
       inkscape:connector-curvature="0" />
  </g>
</svg>
