<?xml version="1.0" encoding="UTF-8" standalone="no"?>
<!-- Created with Inkscape (http://www.inkscape.org/) -->

<svg
   xmlns:osb="http://www.openswatchbook.org/uri/2009/osb"
   xmlns:dc="http://purl.org/dc/elements/1.1/"
   xmlns:cc="http://creativecommons.org/ns#"
   xmlns:rdf="http://www.w3.org/1999/02/22-rdf-syntax-ns#"
   xmlns:svg="http://www.w3.org/2000/svg"
   xmlns="http://www.w3.org/2000/svg"
   xmlns:xlink="http://www.w3.org/1999/xlink"
   xmlns:sodipodi="http://sodipodi.sourceforge.net/DTD/sodipodi-0.dtd"
   xmlns:inkscape="http://www.inkscape.org/namespaces/inkscape"
   width="210mm"
   height="297mm"
   viewBox="0 0 210 297"
   version="1.1"
   id="svg8"
   inkscape:version="0.92.4 (5da689c313, 2019-01-14)"
   sodipodi:docname="drawing.svg">
  <defs
     id="defs2">
    <linearGradient
       inkscape:collect="always"
       id="linearGradient2388">
      <stop
         style="stop-color:#f0f7ff;stop-opacity:1;"
         offset="0"
         id="stop2384" />
      <stop
         style="stop-color:#f0f7ff;stop-opacity:0;"
         offset="1"
         id="stop2386" />
    </linearGradient>
    <linearGradient
       inkscape:collect="always"
       id="linearGradient2363-3">
      <stop
         style="stop-color:#ffffff;stop-opacity:1;"
         offset="0"
         id="stop2359" />
      <stop
         style="stop-color:#ffffff;stop-opacity:0;"
         offset="1"
         id="stop2361" />
    </linearGradient>
    <linearGradient
       inkscape:collect="always"
       id="linearGradient2355">
      <stop
         style="stop-color:#ffe300;stop-opacity:1;"
         offset="0"
         id="stop2351" />
      <stop
         style="stop-color:#ffe300;stop-opacity:0;"
         offset="1"
         id="stop2353" />
    </linearGradient>
    <linearGradient
       id="linearGradient865"
       osb:paint="solid">
      <stop
         style="stop-color:#ffca00;stop-opacity:1;"
         offset="0"
         id="stop863" />
    </linearGradient>
    <linearGradient
       inkscape:collect="always"
       id="linearGradient955">
      <stop
         style="stop-color:#fdfeff;stop-opacity:1;"
         offset="0"
         id="stop951" />
      <stop
         style="stop-color:#fdfeff;stop-opacity:0;"
         offset="1"
         id="stop953" />
    </linearGradient>
    <linearGradient
       inkscape:collect="always"
       xlink:href="#linearGradient955"
       id="linearGradient957"
       x1="-512.51593"
       y1="-361.48511"
       x2="-514.07336"
       y2="-342.50897"
       gradientUnits="userSpaceOnUse" />
    <linearGradient
       inkscape:collect="always"
       xlink:href="#linearGradient955"
       id="linearGradient959"
       x1="-499.90781"
       y1="-385.10483"
       x2="-502.27255"
       y2="-363.32236"
       gradientUnits="userSpaceOnUse" />
    <linearGradient
       inkscape:collect="always"
       xlink:href="#linearGradient955"
       id="linearGradient961"
       x1="-517.56738"
       y1="-224.24239"
       x2="-460.90632"
       y2="-220.36697"
       gradientUnits="userSpaceOnUse" />
    <linearGradient
       inkscape:collect="always"
       xlink:href="#linearGradient955"
       id="linearGradient963"
       x1="-511.46094"
       y1="-249.29881"
       x2="-509.1485"
       y2="-234.19815"
       gradientUnits="userSpaceOnUse" />
    <linearGradient
       inkscape:collect="always"
       xlink:href="#linearGradient955"
       id="linearGradient965"
       x1="-1910.1993"
       y1="-1033.3989"
       x2="-1908.179"
       y2="-982.8913"
       gradientUnits="userSpaceOnUse" />
    <linearGradient
       inkscape:collect="always"
       xlink:href="#linearGradient955"
       id="linearGradient967"
       x1="-507.27219"
       y1="-299.54547"
       x2="-509.01474"
       y2="-283.77676"
       gradientUnits="userSpaceOnUse" />
    <linearGradient
       inkscape:collect="always"
       xlink:href="#linearGradient955"
       id="linearGradient969"
       x1="-509.95007"
       y1="-333.2215"
       x2="-508.61383"
       y2="-309.0336"
       gradientUnits="userSpaceOnUse" />
    <radialGradient
       inkscape:collect="always"
       xlink:href="#linearGradient2355"
       id="radialGradient2357"
       cx="-798.28571"
       cy="-392.42856"
       fx="-798.28571"
       fy="-392.42856"
       r="22.489583"
       gradientUnits="userSpaceOnUse"
       gradientTransform="matrix(1.0837554,0.02445192,-0.02540762,1.1261142,56.890003,69.010396)" />
    <radialGradient
       inkscape:collect="always"
       xlink:href="#linearGradient2363-3"
       id="radialGradient2377"
       gradientUnits="userSpaceOnUse"
       gradientTransform="matrix(-0.70654499,-0.13022469,0.19151592,-1.0390855,228.12444,-1601.5466)"
       cx="47.02071"
       cy="-789.57227"
       fx="47.02071"
       fy="-789.57227"
       r="22.489661" />
    <linearGradient
       inkscape:collect="always"
       xlink:href="#linearGradient2388"
       id="linearGradient2390"
       x1="62.816757"
       y1="-730.2019"
       x2="62.559124"
       y2="-729.86688"
       gradientUnits="userSpaceOnUse" />
  </defs>
  <sodipodi:namedview
     id="base"
     pagecolor="#ffffff"
     bordercolor="#666666"
     borderopacity="1.0"
     inkscape:pageopacity="0.0"
     inkscape:pageshadow="2"
     inkscape:zoom="2.8"
     inkscape:cx="-2697.1453"
     inkscape:cy="2576.6245"
     inkscape:document-units="mm"
     inkscape:current-layer="layer1"
     showgrid="false"
     inkscape:pagecheckerboard="true"
     inkscape:window-width="3840"
     inkscape:window-height="2081"
     inkscape:window-x="1491"
     inkscape:window-y="-9"
     inkscape:window-maximized="1" />
  <metadata
     id="metadata5">
    <rdf:RDF>
      <cc:Work
         rdf:about="">
        <dc:format>image/svg+xml</dc:format>
        <dc:type
           rdf:resource="http://purl.org/dc/dcmitype/StillImage" />
        <dc:title />
      </cc:Work>
    </rdf:RDF>
  </metadata>
  <g
     inkscape:label="Layer 1"
     inkscape:groupmode="layer"
     id="layer1">
    <circle
       style="fill:#ffd42a;stroke:url(#radialGradient2357);stroke-width:7.9375;stroke-miterlimit:4;stroke-dasharray:none;stroke-opacity:1"
       id="path10"
       cx="-798.28571"
       cy="-392.42856"
       r="21.166666" />
    <path
       transform="rotate(-64.129546)"
       style="fill:url(#linearGradient2390);stroke:url(#radialGradient2377);stroke-width:5.29166667;fill-opacity:1;stroke-opacity:0.98058254;stroke-miterlimit:4;stroke-dasharray:none"
       d="m 65.541166,-794.63855 c 0,8.27461 -4.821739,15.79051 -12.343111,19.23987 -7.521372,3.44936 -16.3631,2.19963 -22.633832,-3.19917 -6.270731,-5.3988 -8.820532,-13.95663 -6.527205,-21.90709 0,0 2.529492,5.39007 6.900251,9.47245 3.589192,3.35239 8.686997,5.47583 12.364808,5.97365 3.254439,0.44051 8.125311,0.13907 12.066773,-1.79985 5.745669,-2.82646 10.172316,-7.77986 10.172316,-7.77986 z"
       id="path10-0"
       inkscape:connector-curvature="0"
       sodipodi:nodetypes="csscsssc" />
    <path
       style="fill:url(#linearGradient969);fill-opacity:1;stroke:none;stroke-width:0.23971128"
       d="m -479.06154,-334.02338 a 40.625094,8.8025061 0 0 0 -37.57082,5.46487 27.783364,7.8042833 0 0 0 -16.62292,-1.56263 27.783364,7.8042833 0 0 0 -25.06052,4.45702 12.357136,2.7224245 0 0 0 -3.28812,-0.10107 12.357136,2.7224245 0 0 0 -12.35722,2.72245 12.357136,2.7224245 0 0 0 12.35722,2.72207 12.357136,2.7224245 0 0 0 1.48668,-0.0228 27.783364,7.8042833 0 0 0 26.86196,5.83087 27.783364,7.8042833 0 0 0 19.1446,-2.15359 12.599435,3.2669092 0 0 0 11.70761,2.06272 12.599435,3.2669092 0 0 0 11.86441,-2.17887 40.625094,8.8025061 0 0 0 11.47712,0.3639 40.625094,8.8025061 0 0 0 33.50004,-3.82362 25.118099,3.6752733 0 0 0 23.68194,2.4624 25.118099,3.6752733 0 0 0 25.11802,-3.67518 25.118099,3.6752733 0 0 0 -25.08178,-3.67483 15.0224,4.0382632 0 0 0 0.52908,-1.04398 15.0224,4.0382632 0 0 0 -15.02257,-4.03839 15.0224,4.0382632 0 0 0 -7.65623,0.5692 40.625094,8.8025061 0 0 0 -35.0685,-4.38054 z"
       id="path833"
       inkscape:connector-curvature="0" />
    <path
       style="fill:url(#linearGradient967);fill-opacity:1;stroke:none;stroke-width:0.24397779"
       d="m -507.27219,-299.54548 a 14.843366,5.7401388 0 0 0 -14.69292,4.97178 18.533705,4.9068927 0 0 0 -9.00755,-0.62043 18.533705,4.9068927 0 0 0 -18.53327,4.90697 18.533705,4.9068927 0 0 0 18.53327,4.90663 18.533705,4.9068927 0 0 0 15.01194,-2.03677 11.891094,2.3608634 0 0 0 10.82086,1.38875 11.891094,2.3608634 0 0 0 11.32949,-1.64616 19.189765,4.1199383 0 0 0 15.32274,1.64616 19.189765,4.1199383 0 0 0 19.18969,-4.1197 19.189765,4.1199383 0 0 0 -0.70591,-1.10699 18.615713,2.5923207 0 0 0 5.87248,0.13462 18.615713,2.5923207 0 0 0 18.61573,-2.59204 18.615713,2.5923207 0 0 0 -18.61573,-2.59241 18.615713,2.5923207 0 0 0 -5.55473,0.12102 8.2007544,2.0368234 0 0 0 -7.15618,-1.04685 8.2007544,2.0368234 0 0 0 -5.87816,0.61973 13.121207,2.962652 0 0 0 -11.50773,-1.54555 13.121207,2.962652 0 0 0 -10.60394,1.22262 14.843366,5.7401388 0 0 0 -12.44008,-2.61138 z"
       id="path847"
       inkscape:connector-curvature="0" />
    <path
       style="fill:url(#linearGradient965);fill-opacity:1;stroke:none;stroke-width:1.00658262"
       d="M -1890.873 -1025.5703 A 71.379774 19.453327 0 0 0 -1954.1328 -1015.0938 A 36.701343 10.509269 0 0 0 -1966.5879 -1015.7305 A 36.701343 10.509269 0 0 0 -1995.875 -1011.5332 A 32.655527 9.6148628 0 0 0 -2017.4492 -1013.9434 A 32.655527 9.6148628 0 0 0 -2050.1055 -1004.3281 A 32.655527 9.6148628 0 0 0 -2017.4492 -994.71289 A 32.655527 9.6148628 0 0 0 -1993.0605 -997.94727 A 36.701343 10.509269 0 0 0 -1966.5879 -994.71289 A 36.701343 10.509269 0 0 0 -1951.1406 -995.70117 A 71.379774 19.453327 0 0 0 -1890.873 -986.66211 A 71.379774 19.453327 0 0 0 -1844.9004 -991.26172 A 31.788566 8.4968552 0 0 0 -1844.9238 -991.13477 A 31.788566 8.4968552 0 0 0 -1813.1348 -982.63867 A 31.788566 8.4968552 0 0 0 -1782.3477 -989.0625 A 53.462587 15.2049 0 0 0 -1746.7422 -995.09375 A 19.651113 11.403674 0 0 0 -1733.375 -992.0293 A 19.651113 11.403674 0 0 0 -1713.7246 -1003.4336 A 19.651113 11.403674 0 0 0 -1733.375 -1014.8359 A 19.651113 11.403674 0 0 0 -1745.2324 -1012.5137 A 53.462587 15.2049 0 0 0 -1789.7266 -1019.3086 A 53.462587 15.2049 0 0 0 -1827.2422 -1014.9297 A 71.379774 19.453327 0 0 0 -1890.873 -1025.5703 z "
       transform="scale(0.26458333)"
       id="path861" />
    <path
       style="fill:url(#linearGradient963);fill-opacity:1;stroke:none;stroke-width:0.2611962"
       d="m -511.46093,-249.29882 a 16.179889,4.5693725 0 0 0 -16.1007,4.12514 17.865295,4.7629902 0 0 0 -1.53988,-0.0203 17.865295,4.7629902 0 0 0 -17.86563,4.76273 17.865295,4.7629902 0 0 0 17.86563,4.76304 17.865295,4.7629902 0 0 0 9.9291,-0.80771 20.112502,2.2072392 0 0 0 6.2507,0.1108 20.112502,2.2072392 0 0 0 13.72311,-0.59597 22.022628,5.9246953 0 0 0 2.79381,0.0539 22.022628,5.9246953 0 0 0 16.33184,-1.96014 20.337224,4.0659669 0 0 0 8.05037,0.33364 20.337224,4.0659669 0 0 0 20.33704,-4.06584 20.337224,4.0659669 0 0 0 -20.33704,-4.06613 20.337224,4.0659669 0 0 0 -6.88329,0.24408 22.022628,5.9246953 0 0 0 -17.49892,-2.3351 22.022628,5.9246953 0 0 0 -6.06298,0.23121 16.179889,4.5693725 0 0 0 -8.99316,-0.77328 z"
       id="path873"
       inkscape:connector-curvature="0" />
    <path
       style="fill:url(#linearGradient961);fill-opacity:1;stroke:none;stroke-width:0.1770113"
       d="m -489.42391,-224.30912 a 6.1739258,1.2234504 0 0 0 -5.75312,0.7829 15.581814,3.8062902 0 0 0 -7.77058,-0.51108 15.581814,3.8062902 0 0 0 -3.53261,0.10387 9.9958799,2.1206474 0 0 0 -4.84621,-0.26716 9.9958799,2.1206474 0 0 0 -9.9963,2.1208 9.9958799,2.1206474 0 0 0 0.0232,0.13642 11.906856,2.3381498 0 0 0 -7.2259,2.14716 11.906856,2.3381498 0 0 0 11.90675,2.33836 11.906856,2.3381498 0 0 0 2.73886,-0.0656 15.581814,3.8062902 0 0 0 10.93216,1.09864 15.581814,3.8062902 0 0 0 11.66284,-1.28726 18.154281,2.4197132 0 0 0 12.22406,0.6351 18.154281,2.4197132 0 0 0 18.15444,-2.42001 18.154281,2.4197132 0 0 0 -7.07191,-1.91254 12.862346,1.8215818 0 0 0 -12.69947,-1.54048 12.862346,1.8215818 0 0 0 -2.64481,0.0413 6.1739258,1.2234504 0 0 0 0.0723,-0.17725 6.1739258,1.2234504 0 0 0 -6.17379,-1.22319 z"
       id="path885"
       inkscape:connector-curvature="0" />
    <path
       style="fill:url(#linearGradient959);fill-opacity:1;stroke:none;stroke-width:0.21233273"
       d="m -471.56253,-382.44509 a 2.8300748,13.589898 88.129695 0 0 -14.51951,1.7186 2.5748568,17.37913 89.576605 0 0 -13.82651,-1.64595 2.5748568,17.37913 89.576605 0 0 -18.02795,1.46715 2.9325924,19.589874 89.547106 0 0 -3.00711,-0.0895 2.9325924,19.589874 89.547106 0 0 -22.42016,2.6095 2.9325924,19.589874 89.547106 0 0 16.27329,3.23075 2.9325924,19.589874 89.547106 0 0 7.0031,-0.0783 28.808311,3.4374245 0.06320794 0 0 23.07916,2.14506 28.808311,3.4374245 0.06320794 0 0 23.05367,-0.85241 12.47855,1.5378356 0.00415461 0 0 9.28221,0.77797 12.47855,1.5378356 0.00415461 0 0 13.73672,-1.16565 3.2591948,21.967307 89.572651 0 0 15.34676,-2.72259 3.2591948,21.967307 89.572651 0 0 -18.28456,-3.59323 3.2591948,21.967307 89.572651 0 0 -7.40248,0.0724 2.8300748,13.589898 88.129695 0 0 -10.28661,-1.87382 z"
       id="path897"
       inkscape:connector-curvature="0" />
    <path
       style="fill:url(#linearGradient957);fill-opacity:1;stroke:none;stroke-width:0.24975647"
       d="m -498.36081,-358.74555 a 4.1715884,15.673131 87.007434 0 0 -13.30853,1.66594 6.2858333,24.254676 87.18042 0 0 -10.21834,-0.68297 6.2858333,24.254676 87.18042 0 0 -28.07669,6.39065 6.2858333,24.254676 87.18042 0 0 19.63848,6.39065 6.2858333,24.254676 87.18042 0 0 19.35043,-2.17781 3.4247756,23.612937 89.179306 0 0 18.9254,1.64139 3.4247756,23.612937 89.179306 0 0 22.72107,-2.02226 3.9776312,18.362661 88.094482 0 0 10.15192,0.77109 3.9776312,18.362661 88.094482 0 0 20.81515,-4.02206 3.9776312,18.362661 88.094482 0 0 -15.50442,-4.02206 3.9776312,18.362661 88.094482 0 0 -0.0505,3.3e-4 2.1570639,8.6754456 87.427743 0 0 -7.19614,-1.6984 2.1570639,8.6754456 87.427743 0 0 -7.99098,1.05416 3.7610604,12.917069 86.331078 0 0 -8.04303,-1.22698 2.0256126,8.2211073 87.478709 0 0 -5.4225,-0.6318 2.0256126,8.2211073 87.478709 0 0 -4.5186,0.31625 4.1715884,15.673131 87.007434 0 0 -11.27273,-1.74612 z"
       id="path909"
       inkscape:connector-curvature="0" />
  </g>
</svg>
