<svg xmlns="http://www.w3.org/2000/svg" id="lolo" viewBox="0 0 74 79.5">
  <defs>
    <path id="SVGID_1_" d="M0 0h2000v2000H0z"/>
  </defs>

  <g id="layer1" transform="translate(471.8 120)">
    <g id="g3143" transform="scale(.26458) rotate(-36 -2000.3 5111.3)">


      <g id="g3323">
        <path id="path3075" d="M1480 844.5c3.3-21.7 3.6-43.8.7-65.6-1.3-9.4-3.7-19.8-11.6-25.1-32 19.5-48.8 56.7-57.4 93.2-1.5 6.5-2.4 14.4 2.5 18.9z" clip-path="url(#SVGID_2_)" style="fill:#1a1a1a"/>
        <path id="path3077" d="M1593.6 962c18.9-11 36.2-24.9 51.2-40.9 6.6-7 13-15.4 12.2-24.9-35.4-12.4-74.8-2-108.5 14.6-6 3-12.7 7.2-13 13.9z" clip-path="url(#SVGID_2_)" style="fill:#1a1a1a"/>
        <path id="path3081" d="M1497.7 1085.2c18-2.5 21.9-4 37.4-12.4 41.1-22.3 73.3-89.5 58.7-135.3-10.5-32.8-27-47.7-54.6-68.3a168.7 168.7 0 00-79.1-33.9c-53-6.6-110 22.8-131 72-15.2 35.2 4.3 108.7 34.1 138.2 36.7 36.2 72.6 48.3 134.5 39.7" clip-path="url(#SVGID_2_)" style="fill:#000"/>
        <path id="path3083" d="M1411.4 936a43 43 0 01-19.6 8c-6.8.8-13.8 0-20-3-11.2-5.5-18.8-18.4-15.6-30.7 1-4.2 7.4-2.4 6.4 1.7-2.5 9.9 4 19.8 12.6 24.2a32 32 0 0017.3 2.7c3-.2 5.9-.8 8.8-1.7 3-.9 5.9-2.3 8.9-3.3 1.1-.3 2 1.3 1.2 2" clip-path="url(#SVGID_2_)" style="fill:#fff" transform="translate(35.9 -2.6)"/>
        <path id="path3085" d="M1487.9 980.3a26.7 26.7 0 005.6 31.5c9 7.8 22.7 7.3 32 .3 2.7-2 6.2 2.6 3.6 4.8a30.6 30.6 0 01-31.7 4.5 28.8 28.8 0 01-17-25.8c-.3-6 1.3-12 4.7-17 1.2-1.6 3.7-.2 2.8 1.7" clip-path="url(#SVGID_2_)" style="fill:#fff" transform="translate(8.7 -17.5)"/>
        <path id="path3081-2-5-7" d="M1497.7 1085.2c18-2.5 21.9-4 37.4-12.4 3-1.7 6.2-3.7 9.2-5.8-17-7.3-59.8-32.7-83.4-68.3-7.3-11 16.2-38.7 5.9-47.2-14.1-11.5-25.4 23-43.3 17.4-37-11.7-81.7-56.4-94.5-61.7-11.9 27.8-2.3 79.3 16.8 114.3 44.8 3.8 79.8 44.1 85.8 63.3 18.8 4 40.2 4 66.1.4" clip-path="url(#SVGID_2_-2-4-5)" style="fill:#fff"/>
        <path id="path3087" d="M1419 985c3.5 1 3.7 6 1.5 8.2-1.6 1.7-4.1.7-5.8-.3-1.8-1-3.3-2.6-4.1-4.5-1-2.2-1.6-4.7.9-6.2 1.6-1 3.6-1 5.3-.4 1.8.7 3.4 2 4.2 3.7.9 2 1 4.8-.8 6.3-2 1.5-5.5.7-7.4-.6a8.3 8.3 0 01-3.8-6.5c-.1-1.8 1.6-3 3.2-3.2 4-.3 11.2 2.8 9.8 8a4 4 0 01-6 2.4c-2.6-1.6-2.4-4.8 0-6.4 1.2-1 3.2-.4 4 .8a3.2 3.2 0 01-.3 4.4l.8-1.5v.2-1.7c-1-.5-2-1-2.8-1.6l-1.5.8-.1.2-.5 1.6c0 .7.5.3-.1 0l-1-.5c-.7-.4-1.5-.4-2.3-.4l3.1-3.1c0 .8 1.3 2 2.2 1.8l-1.8 1.4c-.2.4 0 .2-.1-.1.1.5-.4-.3 0 0-.2 0-.6-.5-.5-.4-.2-.2-.5-.4-.8-.4-.2 0-.4.1 0-.1l.7-2c0 2.6 1.8 4.6 4.2 5.2l-1.6.3c1.4-.9 1-2.7.2-3.8-.5-.8.3-2 1.3-1.6" clip-path="url(#SVGID_2_)" style="fill:#000" transform="translate(21.6 5.5)"/>
        <path id="path3089" d="M1418 991c-4 9.2-6.7 19.5-4 29.4 1.8 6.9 6.5 14.5 14.4 15 3.8.3 4 6.3 0 6.2-10.4-.4-17.3-9.5-19.6-19-2.7-11 .2-24.1 7.4-33 1-1 2.3.4 1.8 1.4" clip-path="url(#SVGID_2_)" style="fill:#000" transform="translate(21.6 5.5)"/>
        <path id="path3091" d="M1415.4 989.3c.2 5.6-3.8 11.3-8 14.8-4.5 4-10.7 6.3-16.8 5.9a26.4 26.4 0 01-24.3-23.7c-.3-3.3 5.3-4.1 5.8-.8 1.5 9.2 9.1 17.6 18.8 18.2 4.8.2 9.3-1.2 13.3-3.8 4.5-2.8 6.8-6.7 9.4-11.1.5-.9 1.8-.5 1.8.5" clip-path="url(#SVGID_2_)" style="fill:#000" transform="translate(21.6 5.5)"/>
        <path id="path3093" d="M1491 1047c2.5 6.5 9.4 12 14.5 16.5 6 5.2 12.3 10 19 14.1 6.7 4.1 13-6.7 6.2-10.4-6.6-3.6-13-7.3-19.2-11.5-5.5-3.7-11-9.6-17.3-12-1.8-.6-4 1.5-3.2 3.4" clip-path="url(#SVGID_2_)" style="fill:#000"/>
        <path id="path3095" d="M1477.5 1064c.6 5.5 4.7 10.5 7.4 15.2 3.2 5.7 6.4 11.3 9.8 16.9 3.9 6.4 14.2 0 9.9-5.8l-11.6-15c-3.4-4.3-6.9-10.8-11.9-13.4-1.4-.7-3.8.2-3.6 2.1" clip-path="url(#SVGID_2_)" style="fill:#000"/>
        <path id="path3097" d="M1352.3 945.3c.2-2.4-2.4-3.8-3.8-5.5-3-3.5-5.5-7.5-8.3-11.2-5.5-7.2-11-15-17.5-21.4-4.9-4.7-14.1 1.7-9.8 7.6 5.5 7.4 12.2 14 18.7 20.5 4.4 4.4 10.7 13 17.7 12.7 1 0 2.2-.5 2.6-1.5.2-.4.4-.7.4-1.2" clip-path="url(#SVGID_2_)" style="fill:#000" transform="translate(24.3 12.8)"/>
        <path id="path3099" d="M1338 961c-4.5-3.2-11-4-16.3-5.9-5.9-2.1-11.5-5-17-8.1-6.7-4-12.8 7.3-6 10.3 6.4 2.8 12.9 5.2 19.6 6.8 5.7 1.4 13.5 3.6 19.2 1.6 2.2-.7 2.5-3.4.6-4.8" clip-path="url(#SVGID_2_)" style="fill:#000" transform="translate(24.6 13)"/>
      </g>
    </g>
  </g>
</svg>
