<svg xmlns="http://www.w3.org/2000/svg" xmlns:xlink="http://www.w3.org/1999/xlink" viewBox="0 0 50.271 50.271" height="190" width="190"><defs><linearGradient id="d"><stop offset="0" stop-color="#f0f7ff"/><stop offset="1" stop-color="#f0f7ff" stop-opacity="0"/></linearGradient><linearGradient id="c"><stop offset="0" stop-color="#fff"/><stop offset="1" stop-color="#fff" stop-opacity="0"/></linearGradient><linearGradient id="b"><stop offset="0" stop-color="#ffe300"/><stop offset="1" stop-color="#ffe300" stop-opacity="0"/></linearGradient><linearGradient id="a"><stop offset="0" stop-color="#fdfeff"/><stop offset="1" stop-color="#fdfeff" stop-opacity="0"/></linearGradient><linearGradient gradientUnits="userSpaceOnUse" y2="-342.509" x2="-514.073" y1="-361.485" x1="-512.516" id="n" xlink:href="#a"/><linearGradient gradientUnits="userSpaceOnUse" y2="-363.322" x2="-502.273" y1="-385.105" x1="-499.908" id="m" xlink:href="#a"/><linearGradient gradientUnits="userSpaceOnUse" y2="-220.367" x2="-460.906" y1="-224.242" x1="-517.567" id="l" xlink:href="#a"/><linearGradient gradientUnits="userSpaceOnUse" y2="-234.198" x2="-509.149" y1="-249.299" x1="-511.461" id="k" xlink:href="#a"/><linearGradient gradientUnits="userSpaceOnUse" y2="-982.891" x2="-1908.179" y1="-1033.399" x1="-1910.199" id="j" xlink:href="#a"/><linearGradient gradientUnits="userSpaceOnUse" y2="-283.777" x2="-509.015" y1="-299.545" x1="-507.272" id="i" xlink:href="#a"/><linearGradient gradientUnits="userSpaceOnUse" y2="-309.034" x2="-508.614" y1="-333.221" x1="-509.95" id="h" xlink:href="#a"/><linearGradient gradientUnits="userSpaceOnUse" y2="-729.867" x2="62.559" y1="-730.202" x1="62.817" id="f" xlink:href="#d"/><radialGradient gradientTransform="matrix(1.08376 .02445 -.0254 1.12611 56.89 69.01)" gradientUnits="userSpaceOnUse" r="22.49" fy="-392.429" fx="-798.286" cy="-392.429" cx="-798.286" id="e" xlink:href="#b"/><radialGradient r="22.49" fy="-789.572" fx="47.021" cy="-789.572" cx="47.021" gradientTransform="matrix(-.70654 -.13022 .19152 -1.03909 228.124 -1601.547)" gradientUnits="userSpaceOnUse" id="g" xlink:href="#c"/></defs><g transform="translate(823.421 417.564)"><circle r="21.167" cy="-392.429" cx="-798.286" fill="#ffd42a" stroke="url(#e)" stroke-width="7.938"/><path d="M65.541-794.639a21.167 21.167 0 11-41.504-5.866s2.53 5.39 6.9 9.473c3.59 3.352 8.687 5.475 12.365 5.973 3.255.44 8.125.14 12.067-1.8 5.746-2.826 10.172-7.78 10.172-7.78z" transform="rotate(-64.13)" fill="url(#f)" stroke="url(#g)" stroke-width="5.292" stroke-opacity=".981"/><path d="M-479.062-334.023a40.625 8.803 0 00-37.57 5.464 27.783 7.804 0 00-16.623-1.562 27.783 7.804 0 00-25.06 4.457 12.357 2.722 0 00-3.289-.101 12.357 2.722 0 00-12.357 2.722 12.357 2.722 0 0012.357 2.722 12.357 2.722 0 001.487-.022 27.783 7.804 0 0026.862 5.83 27.783 7.804 0 0019.144-2.153 12.6 3.267 0 0011.708 2.063 12.6 3.267 0 0011.864-2.18 40.625 8.803 0 0011.477.365 40.625 8.803 0 0033.5-3.824 25.118 3.675 0 0023.682 2.462 25.118 3.675 0 0025.118-3.675 25.118 3.675 0 00-25.081-3.675 15.022 4.038 0 00.529-1.044 15.022 4.038 0 00-15.023-4.038 15.022 4.038 0 00-7.656.57 40.625 8.803 0 00-35.069-4.381z" fill="url(#h)"/><path d="M-507.272-299.545a14.843 5.74 0 00-14.693 4.971 18.534 4.907 0 00-9.008-.62 18.534 4.907 0 00-18.533 4.907 18.534 4.907 0 0018.533 4.906 18.534 4.907 0 0015.012-2.036 11.891 2.36 0 0010.821 1.388 11.891 2.36 0 0011.33-1.646 19.19 4.12 0 0015.322 1.646 19.19 4.12 0 0019.19-4.12 19.19 4.12 0 00-.706-1.106 18.616 2.592 0 005.873.134 18.616 2.592 0 0018.615-2.592 18.616 2.592 0 00-18.615-2.592 18.616 2.592 0 00-5.555.121 8.2 2.037 0 00-7.156-1.047 8.2 2.037 0 00-5.878.62 13.121 2.963 0 00-11.508-1.546 13.121 2.963 0 00-10.604 1.223 14.843 5.74 0 00-12.44-2.611z" fill="url(#i)"/><path transform="scale(.26458)" d="M-1890.873-1025.57a71.38 19.453 0 00-63.26 10.476 36.701 10.51 0 00-12.455-.637 36.701 10.51 0 00-29.287 4.198 32.656 9.615 0 00-21.574-2.41 32.656 9.615 0 00-32.656 9.615 32.656 9.615 0 0032.656 9.615 32.656 9.615 0 0024.389-3.234 36.701 10.51 0 0026.472 3.234 36.701 10.51 0 0015.447-.988 71.38 19.453 0 0060.268 9.039 71.38 19.453 0 0045.973-4.6 31.789 8.497 0 00-.023.127 31.789 8.497 0 0031.789 8.496 31.789 8.497 0 0030.787-6.424 53.463 15.205 0 0035.605-6.03 19.651 11.404 0 0013.367 3.064 19.651 11.404 0 0019.65-11.405 19.651 11.404 0 00-19.65-11.402 19.651 11.404 0 00-11.857 2.322 53.463 15.205 0 00-44.494-6.795 53.463 15.205 0 00-37.516 4.38 71.38 19.453 0 00-63.63-10.641z" fill="url(#j)"/><path d="M-511.46-249.299a16.18 4.57 0 00-16.102 4.125 17.865 4.763 0 00-1.54-.02 17.865 4.763 0 00-17.865 4.763 17.865 4.763 0 0017.865 4.763 17.865 4.763 0 009.93-.808 20.113 2.207 0 006.25.11 20.113 2.207 0 0013.723-.595 22.023 5.925 0 002.794.054 22.023 5.925 0 0016.332-1.96 20.337 4.066 0 008.05.333 20.337 4.066 0 0020.337-4.066 20.337 4.066 0 00-20.337-4.066 20.337 4.066 0 00-6.883.244 22.023 5.925 0 00-17.499-2.335 22.023 5.925 0 00-6.063.232 16.18 4.57 0 00-8.993-.774z" fill="url(#k)"/><path d="M-489.424-224.31a6.174 1.223 0 00-5.753.784 15.582 3.806 0 00-7.77-.511 15.582 3.806 0 00-3.533.104 9.996 2.12 0 00-4.846-.268 9.996 2.12 0 00-9.997 2.121 9.996 2.12 0 00.023.137 11.907 2.338 0 00-7.225 2.147 11.907 2.338 0 0011.906 2.338 11.907 2.338 0 002.74-.065 15.582 3.806 0 0010.931 1.098 15.582 3.806 0 0011.663-1.287 18.154 2.42 0 0012.224.635 18.154 2.42 0 0018.155-2.42 18.154 2.42 0 00-7.072-1.913 12.862 1.822 0 00-12.7-1.54 12.862 1.822 0 00-2.645.041 6.174 1.223 0 00.073-.177 6.174 1.223 0 00-6.174-1.223z" fill="url(#l)"/><path d="M-471.563-382.445a2.83 13.59 88.13 00-14.519 1.719 2.575 17.38 89.577 00-13.827-1.646 2.575 17.38 89.577 00-18.027 1.467 2.933 19.59 89.547 00-3.008-.09 2.933 19.59 89.547 00-22.42 2.61 2.933 19.59 89.547 0016.274 3.23 2.933 19.59 89.547 007.003-.078 28.808 3.437.063 0023.079 2.145 28.808 3.437.063 0023.053-.852 12.479 1.538.004 009.283.778 12.479 1.538.004 0013.736-1.166 3.26 21.967 89.573 0015.347-2.722 3.26 21.967 89.573 00-18.284-3.594 3.26 21.967 89.573 00-7.403.073 2.83 13.59 88.13 00-10.287-1.874z" fill="url(#m)"/><path d="M-498.36-358.746a4.172 15.673 87.007 00-13.31 1.666 6.286 24.255 87.18 00-10.218-.683 6.286 24.255 87.18 00-28.076 6.391 6.286 24.255 87.18 0019.638 6.39 6.286 24.255 87.18 0019.35-2.177 3.425 23.613 89.18 0018.926 1.641 3.425 23.613 89.18 0022.721-2.022 3.978 18.363 88.094 0010.152.771 3.978 18.363 88.094 0020.815-4.022 3.978 18.363 88.094 00-15.504-4.022 3.978 18.363 88.094 00-.05 0 2.157 8.675 87.428 00-7.197-1.698 2.157 8.675 87.428 00-7.991 1.054 3.761 12.917 86.331 00-8.043-1.227 2.026 8.221 87.479 00-5.422-.632 2.026 8.221 87.479 00-4.52.317 4.172 15.673 87.007 00-11.272-1.747z" fill="url(#n)"/></g></svg>